<svg width="159" height="40" viewBox="0 0 159 40" fill="none" xmlns="http://www.w3.org/2000/svg">
<path d="M64.612 17.764V12.4H66.268V25H64.612V19.312H58.06V25H56.422V12.4H58.06V17.764H64.612ZM69.7078 13.948C69.4078 13.948 69.1678 13.864 68.9878 13.696C68.8078 13.528 68.7178 13.294 68.7178 12.994C68.7178 12.706 68.8078 12.478 68.9878 12.31C69.1678 12.13 69.4078 12.04 69.7078 12.04C70.0078 12.04 70.2478 12.13 70.4278 12.31C70.6078 12.478 70.6978 12.706 70.6978 12.994C70.6978 13.294 70.6078 13.528 70.4278 13.696C70.2598 13.864 70.0198 13.948 69.7078 13.948ZM68.9338 25V16H70.4818V25H68.9338ZM77.3345 15.802C77.4785 15.802 77.5865 15.808 77.6585 15.82L77.5325 17.296C77.3885 17.272 77.2745 17.26 77.1905 17.26C76.4225 17.26 75.7745 17.494 75.2465 17.962C74.7305 18.43 74.4725 19.108 74.4725 19.996V25H72.9245V16H74.4725V17.548C74.6765 17.056 75.0245 16.642 75.5165 16.306C76.0205 15.97 76.6265 15.802 77.3345 15.802ZM82.8653 15.784C83.7413 15.784 84.5213 16 85.2053 16.432C85.8893 16.852 86.4173 17.428 86.7893 18.16C87.1733 18.88 87.3653 19.666 87.3653 20.518C87.3653 20.614 87.3593 20.722 87.3473 20.842C87.3353 20.95 87.3233 21.04 87.3113 21.112H79.7333C79.8533 21.916 80.2013 22.576 80.7773 23.092C81.3653 23.596 82.1093 23.848 83.0093 23.848C83.5613 23.848 84.0833 23.722 84.5753 23.47C85.0793 23.218 85.4513 22.906 85.6913 22.534L86.9153 23.254C86.5193 23.878 85.9793 24.364 85.2953 24.712C84.6233 25.048 83.8553 25.216 82.9913 25.216C82.0433 25.216 81.2033 25.012 80.4713 24.604C79.7393 24.196 79.1693 23.638 78.7613 22.93C78.3533 22.21 78.1493 21.4 78.1493 20.5C78.1493 19.612 78.3473 18.814 78.7433 18.106C79.1513 17.386 79.7093 16.822 80.4173 16.414C81.1373 15.994 81.9533 15.784 82.8653 15.784ZM85.8893 19.852C85.7693 19.012 85.4453 18.352 84.9173 17.872C84.3893 17.392 83.7053 17.152 82.8653 17.152C82.2773 17.152 81.7433 17.278 81.2633 17.53C80.7833 17.782 80.4053 18.118 80.1293 18.538C79.8533 18.946 79.7093 19.384 79.6973 19.852H85.8893ZM104.19 12.436V12.4H105.846V25H104.19V15.37L100.176 22.138H99.7443L95.7123 15.334V25.018H94.0743V12.418H95.7123V12.436L95.8023 12.4L99.9603 19.438L104.118 12.4L104.19 12.436ZM112.66 15.784C113.536 15.784 114.316 16 115 16.432C115.684 16.852 116.212 17.428 116.584 18.16C116.968 18.88 117.16 19.666 117.16 20.518C117.16 20.614 117.154 20.722 117.142 20.842C117.13 20.95 117.118 21.04 117.106 21.112H109.528C109.648 21.916 109.996 22.576 110.572 23.092C111.16 23.596 111.904 23.848 112.804 23.848C113.356 23.848 113.878 23.722 114.37 23.47C114.874 23.218 115.246 22.906 115.486 22.534L116.71 23.254C116.314 23.878 115.774 24.364 115.09 24.712C114.418 25.048 113.65 25.216 112.786 25.216C111.838 25.216 110.998 25.012 110.266 24.604C109.534 24.196 108.964 23.638 108.556 22.93C108.148 22.21 107.944 21.4 107.944 20.5C107.944 19.612 108.142 18.814 108.538 18.106C108.946 17.386 109.504 16.822 110.212 16.414C110.932 15.994 111.748 15.784 112.66 15.784ZM115.684 19.852C115.564 19.012 115.24 18.352 114.712 17.872C114.184 17.392 113.5 17.152 112.66 17.152C112.072 17.152 111.538 17.278 111.058 17.53C110.578 17.782 110.2 18.118 109.924 18.538C109.648 18.946 109.504 19.384 109.492 19.852H115.684ZM131.645 21.796V12.4H133.301V25H131.861L125.507 15.208V25H123.869V12.4H125.507V12.418L125.525 12.4L131.645 21.796ZM140.117 25.216C139.265 25.216 138.479 25.006 137.759 24.586C137.039 24.166 136.463 23.596 136.031 22.876C135.611 22.144 135.401 21.352 135.401 20.5C135.401 19.648 135.611 18.862 136.031 18.142C136.463 17.422 137.039 16.852 137.759 16.432C138.479 16.012 139.265 15.802 140.117 15.802C140.969 15.802 141.755 16.012 142.475 16.432C143.195 16.852 143.765 17.422 144.185 18.142C144.617 18.862 144.833 19.648 144.833 20.5C144.833 21.352 144.617 22.144 144.185 22.876C143.765 23.596 143.195 24.166 142.475 24.586C141.755 25.006 140.969 25.216 140.117 25.216ZM140.117 23.668C140.693 23.668 141.221 23.53 141.701 23.254C142.181 22.966 142.559 22.582 142.835 22.102C143.123 21.61 143.267 21.076 143.267 20.5C143.267 19.924 143.123 19.396 142.835 18.916C142.559 18.436 142.181 18.058 141.701 17.782C141.221 17.494 140.693 17.35 140.117 17.35C139.541 17.35 139.007 17.494 138.515 17.782C138.035 18.058 137.651 18.436 137.363 18.916C137.087 19.396 136.949 19.924 136.949 20.5C136.949 21.076 137.087 21.61 137.363 22.102C137.651 22.582 138.035 22.966 138.515 23.254C139.007 23.53 139.541 23.668 140.117 23.668ZM154.65 22.624L156.72 16H158.358L155.442 25H153.858L151.77 18.502L149.7 25H148.134L145.326 16H146.946L148.926 22.624L150.924 16H152.598L154.65 22.624Z" fill="#1B1C23"/>
<path d="M0 0H30C35.5228 0 40 4.47715 40 10V40H0V0Z" fill="#1B1C23"/>
<path d="M15 25L25 15" stroke="white" stroke-width="2" stroke-linecap="round" stroke-linejoin="round"/>
<path d="M15 15L25 15L25 25" stroke="white" stroke-width="2" stroke-linecap="round" stroke-linejoin="round"/>
</svg>
