<svg width="84" height="36" viewBox="0 0 84 36" fill="none" xmlns="http://www.w3.org/2000/svg">
<path d="M26.072 29.048V34.952H1.064V33.512C1.288 30.344 2.216 27.272 3.848 24.296C5.48 21.32 7.976 19.16 11.336 17.816C12.04 17.496 12.568 17.272 12.92 17.144C14.52 16.472 15.752 15.912 16.616 15.464C17.512 14.984 18.248 14.424 18.824 13.784C19.432 13.112 19.736 12.328 19.736 11.432C19.736 10.376 19.432 9.48 18.824 8.744C18.248 7.976 17.512 7.4 16.616 7.016C15.72 6.632 14.824 6.44 13.928 6.44C11.976 6.44 10.296 6.84 8.888 7.64C7.512 8.408 6.696 9.592 6.44 11.192L0.536 10.568C0.824 8.52 1.608 6.76 2.888 5.288C4.168 3.816 5.768 2.696 7.688 1.928C9.64 1.16 11.72 0.775997 13.928 0.775997C15.912 0.775997 17.816 1.192 19.64 2.024C21.464 2.856 22.936 4.056 24.056 5.624C25.176 7.192 25.736 9.032 25.736 11.144C25.736 13.256 25.224 15.016 24.2 16.424C23.208 17.832 21.896 19 20.264 19.928C18.632 20.824 16.44 21.8 13.688 22.856C11.256 23.816 9.512 25.88 8.456 29.048H26.072ZM42.2761 35.624C39.4921 35.624 37.0601 34.904 34.9801 33.464C32.9321 31.992 31.3481 29.944 30.2281 27.32C29.1401 24.696 28.5961 21.656 28.5961 18.2C28.5961 14.744 29.1401 11.704 30.2281 9.08C31.3481 6.456 32.9321 4.424 34.9801 2.984C37.0601 1.512 39.4921 0.775997 42.2761 0.775997C45.0601 0.775997 47.4761 1.512 49.5241 2.984C51.5721 4.424 53.1401 6.456 54.2281 9.08C55.3481 11.704 55.9081 14.744 55.9081 18.2C55.9081 21.656 55.3481 24.696 54.2281 27.32C53.1401 29.944 51.5721 31.992 49.5241 33.464C47.4761 34.904 45.0601 35.624 42.2761 35.624ZM42.2761 29.336C44.5481 29.336 46.3401 28.424 47.6521 26.6C48.9961 24.744 49.6681 21.944 49.6681 18.2C49.6681 14.456 48.9961 11.672 47.6521 9.848C46.3401 7.992 44.5481 7.064 42.2761 7.064C40.0041 7.064 38.1961 7.992 36.8521 9.848C35.5401 11.672 34.8841 14.456 34.8841 18.2C34.8841 21.944 35.5401 24.744 36.8521 26.6C38.1961 28.424 40.0041 29.336 42.2761 29.336ZM58.7683 7.352V1.4H83.4403V5.912L70.4323 35H63.6163L75.9043 7.352H58.7683Z" fill="#1B1C23"/>
</svg>
