<svg width="55" height="36" viewBox="0 0 55 36" fill="none" xmlns="http://www.w3.org/2000/svg">
<path d="M13.304 11.72C15.736 11.72 17.912 12.232 19.832 13.256C21.752 14.28 23.256 15.704 24.344 17.528C25.464 19.352 26.024 21.4 26.024 23.672C26.024 25.944 25.464 27.992 24.344 29.816C23.256 31.64 21.752 33.064 19.832 34.088C17.912 35.112 15.736 35.624 13.304 35.624C10.904 35.624 8.728 35.112 6.776 34.088C4.856 33.064 3.352 31.64 2.264 29.816C1.176 27.992 0.632 25.944 0.632 23.672C0.632 21.464 1.16 19.448 2.216 17.624H2.168L12.344 1.4H19.592L13.112 11.72H13.304ZM13.304 29.432C15.096 29.432 16.584 28.888 17.768 27.8C18.952 26.68 19.544 25.304 19.544 23.672C19.544 22.04 18.936 20.664 17.72 19.544C16.536 18.424 15.064 17.864 13.304 17.864C11.576 17.864 10.104 18.424 8.888 19.544C7.672 20.664 7.064 22.04 7.064 23.672C7.064 25.336 7.672 26.712 8.888 27.8C10.104 28.888 11.576 29.432 13.304 29.432ZM54.7561 12.728C54.7561 15.256 54.1161 17.448 52.8361 19.304L42.9961 35H35.7961L42.2761 24.68H42.0841C39.6521 24.68 37.4601 24.168 35.5081 23.144C33.5881 22.088 32.0841 20.664 30.9961 18.872C29.9081 17.048 29.3641 15 29.3641 12.728C29.3641 10.424 29.9081 8.376 30.9961 6.584C32.0841 4.76 33.5881 3.336 35.5081 2.312C37.4601 1.288 39.6521 0.775997 42.0841 0.775997C44.5161 0.775997 46.6921 1.288 48.6121 2.312C50.5321 3.336 52.0361 4.76 53.1241 6.584C54.2121 8.376 54.7561 10.424 54.7561 12.728ZM35.8441 12.728C35.8441 14.36 36.4361 15.736 37.6201 16.856C38.8361 17.976 40.3241 18.536 42.0841 18.536C43.8121 18.536 45.2681 17.976 46.4521 16.856C47.6681 15.736 48.2761 14.36 48.2761 12.728C48.2761 11.064 47.6681 9.688 46.4521 8.6C45.2681 7.48 43.8121 6.92 42.0841 6.92C40.2921 6.92 38.8041 7.48 37.6201 8.6C36.4361 9.72 35.8441 11.096 35.8441 12.728Z" fill="#1B1C23"/>
</svg>
