<svg width="26" height="36" viewBox="0 0 26 36" fill="none" xmlns="http://www.w3.org/2000/svg">
<path d="M21.704 17.48C24.52 19.08 25.928 21.656 25.928 25.208C25.928 28.44 24.808 30.984 22.568 32.84C20.36 34.696 17.32 35.624 13.448 35.624C9.544 35.624 6.472 34.696 4.232 32.84C2.024 30.984 0.92 28.44 0.92 25.208C0.92 21.656 2.344 19.08 5.192 17.48C2.856 16.04 1.688 13.768 1.688 10.664C1.688 7.592 2.728 5.176 4.808 3.416C6.92 1.656 9.8 0.775997 13.448 0.775997C17.064 0.775997 19.912 1.656 21.992 3.416C24.104 5.176 25.16 7.592 25.16 10.664C25.16 13.768 24.008 16.04 21.704 17.48ZM13.448 6.392C11.688 6.392 10.296 6.776 9.272 7.544C8.28 8.312 7.784 9.352 7.784 10.664C7.784 11.976 8.28 13.016 9.272 13.784C10.296 14.52 11.688 14.888 13.448 14.888C15.208 14.888 16.584 14.52 17.576 13.784C18.568 13.016 19.064 11.976 19.064 10.664C19.064 9.352 18.568 8.312 17.576 7.544C16.584 6.776 15.208 6.392 13.448 6.392ZM13.448 29.864C15.432 29.864 17.016 29.416 18.2 28.52C19.416 27.624 20.024 26.392 20.024 24.824C20.024 23.288 19.432 22.104 18.248 21.272C17.064 20.44 15.464 20.024 13.448 20.024C11.432 20.024 9.816 20.44 8.6 21.272C7.416 22.104 6.824 23.288 6.824 24.824C6.824 26.392 7.432 27.624 8.648 28.52C9.864 29.416 11.464 29.864 13.448 29.864Z" fill="#1B1C23"/>
</svg>
